<svg xmlns="http://www.w3.org/2000/svg" version="1.1" xmlns:xlink="http://www.w3.org/1999/xlink" xmlns:svgjs="http://svgjs.dev/svgjs" width="1500" height="1500" viewBox="0 0 1500 1500"><rect width="1500" height="1500" fill="#471aa0"></rect><g transform="matrix(0.6666666666666666,0,0,0.6666666666666666,249.39393939393938,619.4461086465988)"><svg viewBox="0 0 396 103" data-background-color="#471aa0" preserveAspectRatio="xMidYMid meet" height="390" width="1500" xmlns="http://www.w3.org/2000/svg" xmlns:xlink="http://www.w3.org/1999/xlink"><g id="tight-bounds" transform="matrix(1,0,0,1,0.2400000000000091,0.21942619000122932)"><svg viewBox="0 0 395.52 102.56114761999757" height="102.56114761999757" width="395.52"><g><svg viewBox="0 0 567.951466171121 147.27385255605378" height="102.56114761999757" width="395.52"><g transform="matrix(1,0,0,1,0,20.35405632286995)"><svg viewBox="0 0 395.52 106.56573991031388" height="106.56573991031388" width="395.52"><g id="textblocktransform"><svg viewBox="0 0 395.52 106.56573991031388" height="106.56573991031388" width="395.52" id="textblock"><g><svg viewBox="0 0 395.52 106.56573991031388" height="106.56573991031388" width="395.52"><g transform="matrix(1,0,0,1,0,0)"><svg width="395.52" viewBox="2.35 -35.65 133.79 36.05" height="106.56573991031388" data-palette-color="#ffffff"><path d="M15.55 0.4Q7.3 0.4 2.35-4.05L2.35-4.05 3.95-7.2Q6.55-5 9.28-4.05 12-3.1 15.6-3.1L15.6-3.1Q19.85-3.1 22.15-4.75 24.45-6.4 24.45-9.4L24.45-9.4Q24.45-11.15 23.35-12.25 22.25-13.35 20.45-14 18.65-14.65 15.6-15.35L15.6-15.35Q11.5-16.3 8.88-17.35 6.25-18.4 4.63-20.35 3-22.3 3-25.45L3-25.45Q3-28.45 4.58-30.78 6.15-33.1 9.08-34.38 12-35.65 15.85-35.65L15.85-35.65Q19.5-35.65 22.68-34.5 25.85-33.35 28.05-31.2L28.05-31.2 26.5-28.05Q24-30.2 21.43-31.18 18.85-32.15 15.85-32.15L15.85-32.15Q11.75-32.15 9.43-30.43 7.1-28.7 7.1-25.6L7.1-25.6Q7.1-22.95 9.15-21.6 11.2-20.25 15.35-19.3L15.35-19.3Q19.9-18.2 22.5-17.28 25.1-16.35 26.83-14.5 28.55-12.65 28.55-9.55L28.55-9.55Q28.55-6.55 26.98-4.3 25.4-2.05 22.45-0.83 19.5 0.4 15.55 0.4L15.55 0.4ZM55-13.05L55-11.55 37.2-11.55Q37.4-7.3 39.5-5.13 41.6-2.95 45.45-2.95L45.45-2.95Q49.7-2.95 53.25-5.85L53.25-5.85 54.6-2.9Q53-1.4 50.5-0.53 48 0.35 45.4 0.35L45.4 0.35Q39.7 0.35 36.42-3 33.15-6.35 33.15-12.25L33.15-12.25Q33.15-16 34.6-18.88 36.05-21.75 38.67-23.35 41.3-24.95 44.65-24.95L44.65-24.95Q49.5-24.95 52.25-21.78 55-18.6 55-13.05L55-13.05ZM44.7-21.8Q41.5-21.8 39.57-19.8 37.65-17.8 37.3-14.15L37.3-14.15 51.45-14.15Q51.35-17.85 49.6-19.83 47.85-21.8 44.7-21.8L44.7-21.8ZM65 0L60.95 0 60.95-35.25 65-35.25 65 0ZM76.59 0L72.54 0 72.54-35.25 76.59-35.25 76.59 0ZM115.84 0L111.69 0 107.79-9.05 89.39-9.05 85.49 0 81.29 0 96.79-35.25 100.34-35.25 115.84 0ZM98.59-30.5L90.84-12.45 106.34-12.45 98.59-30.5ZM124.54 0L120.49 0 120.49-35.25 124.54-35.25 124.54 0ZM136.14 0L132.09 0 132.09-35.25 136.14-35.25 136.14 0Z" opacity="1" transform="matrix(1,0,0,1,0,0)" fill="#ffffff" class="wordmark-text-0" data-fill-palette-color="primary" id="text-0"></path></svg></g></svg></g></svg></g></svg></g><g transform="matrix(1,0,0,1,420.67761361506723,0)"><svg viewBox="0 0 147.27385255605378 147.27385255605378" height="147.27385255605378" width="147.27385255605378"><g data-palette-color="#ffffff"><rect width="40.254853031988034" height="147.27385255605378" fill="#ffffff" stroke="transparent" data-fill-palette-color="accent" x="0" fill-opacity="1"></rect><rect width="40.254853031988034" height="147.27385255605378" fill="#ffffff" stroke="transparent" data-fill-palette-color="accent" x="49.09128418535126" fill-opacity="0.75"></rect><rect width="40.254853031988034" height="147.27385255605378" fill="#ffffff" stroke="transparent" data-fill-palette-color="accent" x="98.18256837070253" fill-opacity="0.5"></rect></g></svg></g></svg></g><defs></defs></svg><rect width="395.52" height="102.56114761999757" fill="none" stroke="none" visibility="hidden"></rect></g></svg></g></svg>